<svg xmlns="http://www.w3.org/2000/svg" xmlns:xlink="http://www.w3.org/1999/xlink" width="132" zoomAndPan="magnify" viewBox="0 0 98.88 21.75" height="29" preserveAspectRatio="xMidYMid meet" version="1.0"><defs><g/><clipPath id="08651c463b"><path d="M 0.503906 0 L 21.335938 0 L 21.335938 20.832031 L 0.503906 20.832031 Z M 0.503906 0 " clip-rule="nonzero"/></clipPath><clipPath id="304f54d93c"><path d="M 17.140625 20.832031 L 4.695312 20.832031 C 2.382812 20.832031 0.503906 18.953125 0.503906 16.640625 L 0.503906 4.191406 C 0.503906 1.878906 2.382812 0 4.695312 0 L 17.136719 0 C 19.457031 0 21.328125 1.878906 21.328125 4.191406 L 21.328125 16.636719 C 21.335938 18.953125 19.453125 20.832031 17.140625 20.832031 Z M 17.140625 20.832031 " clip-rule="evenodd"/></clipPath><linearGradient x1="47.177005" gradientTransform="matrix(0.00551319, 0, 0, -0.00551319, 0.241727, 18.390252)" y1="3335.559877" x2="3825.676723" gradientUnits="userSpaceOnUse" y2="-442.939716" id="00c2f121ac"><stop stop-opacity="1" stop-color="rgb(49.398804%, 74.099731%, 25.898743%)" offset="0"/><stop stop-opacity="1" stop-color="rgb(49.372864%, 74.105835%, 26.010132%)" offset="0.0625"/><stop stop-opacity="1" stop-color="rgb(49.290466%, 74.128723%, 26.368713%)" offset="0.0664062"/><stop stop-opacity="1" stop-color="rgb(49.234009%, 74.143982%, 26.615906%)" offset="0.0703125"/><stop stop-opacity="1" stop-color="rgb(49.176025%, 74.159241%, 26.861572%)" offset="0.0742188"/><stop stop-opacity="1" stop-color="rgb(49.119568%, 74.1745%, 27.108765%)" offset="0.078125"/><stop stop-opacity="1" stop-color="rgb(49.061584%, 74.189758%, 27.355957%)" offset="0.0820312"/><stop stop-opacity="1" stop-color="rgb(49.005127%, 74.206543%, 27.603149%)" offset="0.0859375"/><stop stop-opacity="1" stop-color="rgb(48.947144%, 74.221802%, 27.848816%)" offset="0.0898438"/><stop stop-opacity="1" stop-color="rgb(48.890686%, 74.237061%, 28.096008%)" offset="0.09375"/><stop stop-opacity="1" stop-color="rgb(48.832703%, 74.252319%, 28.341675%)" offset="0.0976562"/><stop stop-opacity="1" stop-color="rgb(48.776245%, 74.267578%, 28.588867%)" offset="0.101562"/><stop stop-opacity="1" stop-color="rgb(48.718262%, 74.282837%, 28.83606%)" offset="0.105469"/><stop stop-opacity="1" stop-color="rgb(48.661804%, 74.299622%, 29.083252%)" offset="0.109375"/><stop stop-opacity="1" stop-color="rgb(48.603821%, 74.31488%, 29.328918%)" offset="0.113281"/><stop stop-opacity="1" stop-color="rgb(48.547363%, 74.330139%, 29.576111%)" offset="0.117187"/><stop stop-opacity="1" stop-color="rgb(48.48938%, 74.345398%, 29.821777%)" offset="0.121094"/><stop stop-opacity="1" stop-color="rgb(48.432922%, 74.360657%, 30.06897%)" offset="0.125"/><stop stop-opacity="1" stop-color="rgb(48.374939%, 74.375916%, 30.316162%)" offset="0.128906"/><stop stop-opacity="1" stop-color="rgb(48.318481%, 74.3927%, 30.563354%)" offset="0.132812"/><stop stop-opacity="1" stop-color="rgb(48.262024%, 74.407959%, 30.809021%)" offset="0.136719"/><stop stop-opacity="1" stop-color="rgb(48.205566%, 74.423218%, 31.056213%)" offset="0.140625"/><stop stop-opacity="1" stop-color="rgb(48.147583%, 74.438477%, 31.30188%)" offset="0.144531"/><stop stop-opacity="1" stop-color="rgb(48.091125%, 74.453735%, 31.549072%)" offset="0.148438"/><stop stop-opacity="1" stop-color="rgb(48.033142%, 74.468994%, 31.796265%)" offset="0.152344"/><stop stop-opacity="1" stop-color="rgb(47.976685%, 74.485779%, 32.043457%)" offset="0.15625"/><stop stop-opacity="1" stop-color="rgb(47.918701%, 74.501038%, 32.289124%)" offset="0.160156"/><stop stop-opacity="1" stop-color="rgb(47.862244%, 74.516296%, 32.536316%)" offset="0.164062"/><stop stop-opacity="1" stop-color="rgb(47.80426%, 74.531555%, 32.781982%)" offset="0.167969"/><stop stop-opacity="1" stop-color="rgb(47.747803%, 74.546814%, 33.029175%)" offset="0.171875"/><stop stop-opacity="1" stop-color="rgb(47.689819%, 74.562073%, 33.276367%)" offset="0.175781"/><stop stop-opacity="1" stop-color="rgb(47.633362%, 74.578857%, 33.52356%)" offset="0.179688"/><stop stop-opacity="1" stop-color="rgb(47.575378%, 74.594116%, 33.769226%)" offset="0.183594"/><stop stop-opacity="1" stop-color="rgb(47.518921%, 74.609375%, 34.016418%)" offset="0.1875"/><stop stop-opacity="1" stop-color="rgb(47.460938%, 74.624634%, 34.262085%)" offset="0.191406"/><stop stop-opacity="1" stop-color="rgb(47.40448%, 74.639893%, 34.509277%)" offset="0.195312"/><stop stop-opacity="1" stop-color="rgb(47.348022%, 74.655151%, 34.75647%)" offset="0.199219"/><stop stop-opacity="1" stop-color="rgb(47.291565%, 74.671936%, 35.003662%)" offset="0.203125"/><stop stop-opacity="1" stop-color="rgb(47.233582%, 74.687195%, 35.249329%)" offset="0.207031"/><stop stop-opacity="1" stop-color="rgb(47.177124%, 74.702454%, 35.496521%)" offset="0.210937"/><stop stop-opacity="1" stop-color="rgb(47.119141%, 74.717712%, 35.742188%)" offset="0.214844"/><stop stop-opacity="1" stop-color="rgb(47.062683%, 74.732971%, 35.98938%)" offset="0.21875"/><stop stop-opacity="1" stop-color="rgb(47.0047%, 74.74823%, 36.236572%)" offset="0.222656"/><stop stop-opacity="1" stop-color="rgb(46.948242%, 74.765015%, 36.483765%)" offset="0.226562"/><stop stop-opacity="1" stop-color="rgb(46.890259%, 74.780273%, 36.729431%)" offset="0.230469"/><stop stop-opacity="1" stop-color="rgb(46.833801%, 74.795532%, 36.976624%)" offset="0.234375"/><stop stop-opacity="1" stop-color="rgb(46.775818%, 74.810791%, 37.22229%)" offset="0.238281"/><stop stop-opacity="1" stop-color="rgb(46.71936%, 74.82605%, 37.469482%)" offset="0.242187"/><stop stop-opacity="1" stop-color="rgb(46.661377%, 74.841309%, 37.716675%)" offset="0.246094"/><stop stop-opacity="1" stop-color="rgb(46.604919%, 74.856567%, 37.963867%)" offset="0.25"/><stop stop-opacity="1" stop-color="rgb(46.546936%, 74.871826%, 38.209534%)" offset="0.253906"/><stop stop-opacity="1" stop-color="rgb(46.490479%, 74.888611%, 38.456726%)" offset="0.257812"/><stop stop-opacity="1" stop-color="rgb(46.432495%, 74.90387%, 38.702393%)" offset="0.261719"/><stop stop-opacity="1" stop-color="rgb(46.376038%, 74.919128%, 38.949585%)" offset="0.265625"/><stop stop-opacity="1" stop-color="rgb(46.31958%, 74.934387%, 39.196777%)" offset="0.269531"/><stop stop-opacity="1" stop-color="rgb(46.263123%, 74.949646%, 39.44397%)" offset="0.273437"/><stop stop-opacity="1" stop-color="rgb(46.205139%, 74.964905%, 39.689636%)" offset="0.277344"/><stop stop-opacity="1" stop-color="rgb(46.148682%, 74.981689%, 39.936829%)" offset="0.28125"/><stop stop-opacity="1" stop-color="rgb(46.090698%, 74.996948%, 40.182495%)" offset="0.285156"/><stop stop-opacity="1" stop-color="rgb(46.034241%, 75.012207%, 40.429688%)" offset="0.289062"/><stop stop-opacity="1" stop-color="rgb(45.976257%, 75.027466%, 40.67688%)" offset="0.292969"/><stop stop-opacity="1" stop-color="rgb(45.9198%, 75.042725%, 40.924072%)" offset="0.296875"/><stop stop-opacity="1" stop-color="rgb(45.861816%, 75.057983%, 41.169739%)" offset="0.300781"/><stop stop-opacity="1" stop-color="rgb(45.805359%, 75.074768%, 41.416931%)" offset="0.304687"/><stop stop-opacity="1" stop-color="rgb(45.747375%, 75.090027%, 41.662598%)" offset="0.308594"/><stop stop-opacity="1" stop-color="rgb(45.690918%, 75.105286%, 41.90979%)" offset="0.3125"/><stop stop-opacity="1" stop-color="rgb(45.632935%, 75.120544%, 42.156982%)" offset="0.316406"/><stop stop-opacity="1" stop-color="rgb(45.576477%, 75.135803%, 42.404175%)" offset="0.320312"/><stop stop-opacity="1" stop-color="rgb(45.518494%, 75.151062%, 42.649841%)" offset="0.324219"/><stop stop-opacity="1" stop-color="rgb(45.462036%, 75.167847%, 42.897034%)" offset="0.328125"/><stop stop-opacity="1" stop-color="rgb(45.404053%, 75.183105%, 43.1427%)" offset="0.332031"/><stop stop-opacity="1" stop-color="rgb(45.347595%, 75.198364%, 43.389893%)" offset="0.335937"/><stop stop-opacity="1" stop-color="rgb(45.291138%, 75.213623%, 43.637085%)" offset="0.339844"/><stop stop-opacity="1" stop-color="rgb(45.23468%, 75.228882%, 43.884277%)" offset="0.34375"/><stop stop-opacity="1" stop-color="rgb(45.176697%, 75.244141%, 44.129944%)" offset="0.347656"/><stop stop-opacity="1" stop-color="rgb(45.120239%, 75.260925%, 44.377136%)" offset="0.351562"/><stop stop-opacity="1" stop-color="rgb(45.062256%, 75.276184%, 44.622803%)" offset="0.355469"/><stop stop-opacity="1" stop-color="rgb(45.005798%, 75.291443%, 44.869995%)" offset="0.359375"/><stop stop-opacity="1" stop-color="rgb(44.947815%, 75.306702%, 45.117188%)" offset="0.363281"/><stop stop-opacity="1" stop-color="rgb(44.891357%, 75.32196%, 45.36438%)" offset="0.367187"/><stop stop-opacity="1" stop-color="rgb(44.833374%, 75.337219%, 45.610046%)" offset="0.371094"/><stop stop-opacity="1" stop-color="rgb(44.776917%, 75.354004%, 45.857239%)" offset="0.375"/><stop stop-opacity="1" stop-color="rgb(44.718933%, 75.369263%, 46.102905%)" offset="0.378906"/><stop stop-opacity="1" stop-color="rgb(44.662476%, 75.384521%, 46.350098%)" offset="0.382812"/><stop stop-opacity="1" stop-color="rgb(44.604492%, 75.39978%, 46.59729%)" offset="0.386719"/><stop stop-opacity="1" stop-color="rgb(44.548035%, 75.415039%, 46.844482%)" offset="0.390625"/><stop stop-opacity="1" stop-color="rgb(44.490051%, 75.430298%, 47.090149%)" offset="0.394531"/><stop stop-opacity="1" stop-color="rgb(44.433594%, 75.447083%, 47.337341%)" offset="0.398437"/><stop stop-opacity="1" stop-color="rgb(44.377136%, 75.462341%, 47.583008%)" offset="0.402344"/><stop stop-opacity="1" stop-color="rgb(44.320679%, 75.4776%, 47.8302%)" offset="0.40625"/><stop stop-opacity="1" stop-color="rgb(44.262695%, 75.492859%, 48.077393%)" offset="0.410156"/><stop stop-opacity="1" stop-color="rgb(44.206238%, 75.508118%, 48.324585%)" offset="0.414062"/><stop stop-opacity="1" stop-color="rgb(44.148254%, 75.523376%, 48.570251%)" offset="0.417969"/><stop stop-opacity="1" stop-color="rgb(44.091797%, 75.538635%, 48.817444%)" offset="0.421875"/><stop stop-opacity="1" stop-color="rgb(44.033813%, 75.553894%, 49.06311%)" offset="0.425781"/><stop stop-opacity="1" stop-color="rgb(43.977356%, 75.570679%, 49.310303%)" offset="0.429687"/><stop stop-opacity="1" stop-color="rgb(43.919373%, 75.585938%, 49.557495%)" offset="0.433594"/><stop stop-opacity="1" stop-color="rgb(43.862915%, 75.601196%, 49.804688%)" offset="0.4375"/><stop stop-opacity="1" stop-color="rgb(43.804932%, 75.616455%, 50.050354%)" offset="0.441406"/><stop stop-opacity="1" stop-color="rgb(43.748474%, 75.631714%, 50.297546%)" offset="0.445312"/><stop stop-opacity="1" stop-color="rgb(43.690491%, 75.646973%, 50.543213%)" offset="0.449219"/><stop stop-opacity="1" stop-color="rgb(43.634033%, 75.663757%, 50.790405%)" offset="0.453125"/><stop stop-opacity="1" stop-color="rgb(43.57605%, 75.679016%, 51.037598%)" offset="0.457031"/><stop stop-opacity="1" stop-color="rgb(43.519592%, 75.694275%, 51.28479%)" offset="0.460937"/><stop stop-opacity="1" stop-color="rgb(43.461609%, 75.709534%, 51.530457%)" offset="0.464844"/><stop stop-opacity="1" stop-color="rgb(43.405151%, 75.724792%, 51.777649%)" offset="0.46875"/><stop stop-opacity="1" stop-color="rgb(43.348694%, 75.740051%, 52.023315%)" offset="0.472656"/><stop stop-opacity="1" stop-color="rgb(43.292236%, 75.756836%, 52.270508%)" offset="0.476562"/><stop stop-opacity="1" stop-color="rgb(43.234253%, 75.772095%, 52.5177%)" offset="0.480469"/><stop stop-opacity="1" stop-color="rgb(43.177795%, 75.787354%, 52.764893%)" offset="0.484375"/><stop stop-opacity="1" stop-color="rgb(43.119812%, 75.802612%, 53.010559%)" offset="0.488281"/><stop stop-opacity="1" stop-color="rgb(43.063354%, 75.817871%, 53.257751%)" offset="0.492187"/><stop stop-opacity="1" stop-color="rgb(43.005371%, 75.83313%, 53.503418%)" offset="0.496094"/><stop stop-opacity="1" stop-color="rgb(42.948914%, 75.849915%, 53.75061%)" offset="0.5"/><stop stop-opacity="1" stop-color="rgb(42.89093%, 75.865173%, 53.997803%)" offset="0.503906"/><stop stop-opacity="1" stop-color="rgb(42.834473%, 75.880432%, 54.244995%)" offset="0.507812"/><stop stop-opacity="1" stop-color="rgb(42.776489%, 75.895691%, 54.490662%)" offset="0.511719"/><stop stop-opacity="1" stop-color="rgb(42.720032%, 75.91095%, 54.737854%)" offset="0.515625"/><stop stop-opacity="1" stop-color="rgb(42.662048%, 75.926208%, 54.983521%)" offset="0.519531"/><stop stop-opacity="1" stop-color="rgb(42.605591%, 75.942993%, 55.230713%)" offset="0.523438"/><stop stop-opacity="1" stop-color="rgb(42.547607%, 75.958252%, 55.477905%)" offset="0.527344"/><stop stop-opacity="1" stop-color="rgb(42.49115%, 75.973511%, 55.725098%)" offset="0.53125"/><stop stop-opacity="1" stop-color="rgb(42.434692%, 75.98877%, 55.970764%)" offset="0.535156"/><stop stop-opacity="1" stop-color="rgb(42.378235%, 76.004028%, 56.217957%)" offset="0.539062"/><stop stop-opacity="1" stop-color="rgb(42.320251%, 76.019287%, 56.463623%)" offset="0.542969"/><stop stop-opacity="1" stop-color="rgb(42.263794%, 76.036072%, 56.710815%)" offset="0.546875"/><stop stop-opacity="1" stop-color="rgb(42.205811%, 76.051331%, 56.958008%)" offset="0.550781"/><stop stop-opacity="1" stop-color="rgb(42.149353%, 76.066589%, 57.2052%)" offset="0.554688"/><stop stop-opacity="1" stop-color="rgb(42.09137%, 76.081848%, 57.450867%)" offset="0.558594"/><stop stop-opacity="1" stop-color="rgb(42.034912%, 76.097107%, 57.698059%)" offset="0.5625"/><stop stop-opacity="1" stop-color="rgb(41.976929%, 76.112366%, 57.943726%)" offset="0.566406"/><stop stop-opacity="1" stop-color="rgb(41.920471%, 76.127625%, 58.190918%)" offset="0.570312"/><stop stop-opacity="1" stop-color="rgb(41.862488%, 76.142883%, 58.43811%)" offset="0.574219"/><stop stop-opacity="1" stop-color="rgb(41.80603%, 76.159668%, 58.685303%)" offset="0.578125"/><stop stop-opacity="1" stop-color="rgb(41.748047%, 76.174927%, 58.930969%)" offset="0.582031"/><stop stop-opacity="1" stop-color="rgb(41.691589%, 76.190186%, 59.178162%)" offset="0.585937"/><stop stop-opacity="1" stop-color="rgb(41.633606%, 76.205444%, 59.423828%)" offset="0.589844"/><stop stop-opacity="1" stop-color="rgb(41.577148%, 76.220703%, 59.671021%)" offset="0.59375"/><stop stop-opacity="1" stop-color="rgb(41.519165%, 76.235962%, 59.918213%)" offset="0.597656"/><stop stop-opacity="1" stop-color="rgb(41.462708%, 76.252747%, 60.165405%)" offset="0.601562"/><stop stop-opacity="1" stop-color="rgb(41.40625%, 76.268005%, 60.411072%)" offset="0.605469"/><stop stop-opacity="1" stop-color="rgb(41.349792%, 76.283264%, 60.658264%)" offset="0.609375"/><stop stop-opacity="1" stop-color="rgb(41.291809%, 76.298523%, 60.903931%)" offset="0.613281"/><stop stop-opacity="1" stop-color="rgb(41.235352%, 76.313782%, 61.151123%)" offset="0.617187"/><stop stop-opacity="1" stop-color="rgb(41.177368%, 76.329041%, 61.398315%)" offset="0.621094"/><stop stop-opacity="1" stop-color="rgb(41.120911%, 76.345825%, 61.645508%)" offset="0.625"/><stop stop-opacity="1" stop-color="rgb(41.062927%, 76.361084%, 61.891174%)" offset="0.628906"/><stop stop-opacity="1" stop-color="rgb(41.00647%, 76.376343%, 62.138367%)" offset="0.632812"/><stop stop-opacity="1" stop-color="rgb(40.948486%, 76.391602%, 62.384033%)" offset="0.636719"/><stop stop-opacity="1" stop-color="rgb(40.892029%, 76.40686%, 62.631226%)" offset="0.640625"/><stop stop-opacity="1" stop-color="rgb(40.834045%, 76.422119%, 62.878418%)" offset="0.644531"/><stop stop-opacity="1" stop-color="rgb(40.777588%, 76.438904%, 63.12561%)" offset="0.648437"/><stop stop-opacity="1" stop-color="rgb(40.719604%, 76.454163%, 63.371277%)" offset="0.652344"/><stop stop-opacity="1" stop-color="rgb(40.663147%, 76.469421%, 63.618469%)" offset="0.65625"/><stop stop-opacity="1" stop-color="rgb(40.605164%, 76.48468%, 63.864136%)" offset="0.660156"/><stop stop-opacity="1" stop-color="rgb(40.548706%, 76.499939%, 64.111328%)" offset="0.664062"/><stop stop-opacity="1" stop-color="rgb(40.492249%, 76.515198%, 64.358521%)" offset="0.667969"/><stop stop-opacity="1" stop-color="rgb(40.435791%, 76.531982%, 64.605713%)" offset="0.671875"/><stop stop-opacity="1" stop-color="rgb(40.377808%, 76.547241%, 64.851379%)" offset="0.675781"/><stop stop-opacity="1" stop-color="rgb(40.32135%, 76.5625%, 65.098572%)" offset="0.679687"/><stop stop-opacity="1" stop-color="rgb(40.263367%, 76.577759%, 65.344238%)" offset="0.683594"/><stop stop-opacity="1" stop-color="rgb(40.206909%, 76.593018%, 65.591431%)" offset="0.6875"/><stop stop-opacity="1" stop-color="rgb(40.148926%, 76.608276%, 65.838623%)" offset="0.691406"/><stop stop-opacity="1" stop-color="rgb(40.092468%, 76.625061%, 66.085815%)" offset="0.695312"/><stop stop-opacity="1" stop-color="rgb(40.034485%, 76.64032%, 66.331482%)" offset="0.699219"/><stop stop-opacity="1" stop-color="rgb(39.978027%, 76.655579%, 66.578674%)" offset="0.703125"/><stop stop-opacity="1" stop-color="rgb(39.920044%, 76.670837%, 66.824341%)" offset="0.707031"/><stop stop-opacity="1" stop-color="rgb(39.863586%, 76.686096%, 67.071533%)" offset="0.710938"/><stop stop-opacity="1" stop-color="rgb(39.805603%, 76.701355%, 67.318726%)" offset="0.714844"/><stop stop-opacity="1" stop-color="rgb(39.749146%, 76.71814%, 67.565918%)" offset="0.71875"/><stop stop-opacity="1" stop-color="rgb(39.691162%, 76.733398%, 67.811584%)" offset="0.722656"/><stop stop-opacity="1" stop-color="rgb(39.634705%, 76.748657%, 68.058777%)" offset="0.726562"/><stop stop-opacity="1" stop-color="rgb(39.576721%, 76.763916%, 68.304443%)" offset="0.730469"/><stop stop-opacity="1" stop-color="rgb(39.520264%, 76.779175%, 68.551636%)" offset="0.734375"/><stop stop-opacity="1" stop-color="rgb(39.463806%, 76.794434%, 68.798828%)" offset="0.738281"/><stop stop-opacity="1" stop-color="rgb(39.407349%, 76.809692%, 69.046021%)" offset="0.742188"/><stop stop-opacity="1" stop-color="rgb(39.349365%, 76.824951%, 69.291687%)" offset="0.746094"/><stop stop-opacity="1" stop-color="rgb(39.292908%, 76.841736%, 69.538879%)" offset="0.75"/><stop stop-opacity="1" stop-color="rgb(39.234924%, 76.856995%, 69.784546%)" offset="0.753906"/><stop stop-opacity="1" stop-color="rgb(39.178467%, 76.872253%, 70.031738%)" offset="0.757812"/><stop stop-opacity="1" stop-color="rgb(39.120483%, 76.887512%, 70.278931%)" offset="0.761719"/><stop stop-opacity="1" stop-color="rgb(39.064026%, 76.902771%, 70.526123%)" offset="0.765625"/><stop stop-opacity="1" stop-color="rgb(39.006042%, 76.91803%, 70.77179%)" offset="0.769531"/><stop stop-opacity="1" stop-color="rgb(38.949585%, 76.934814%, 71.018982%)" offset="0.773437"/><stop stop-opacity="1" stop-color="rgb(38.891602%, 76.950073%, 71.264648%)" offset="0.777344"/><stop stop-opacity="1" stop-color="rgb(38.835144%, 76.965332%, 71.511841%)" offset="0.78125"/><stop stop-opacity="1" stop-color="rgb(38.777161%, 76.980591%, 71.759033%)" offset="0.785156"/><stop stop-opacity="1" stop-color="rgb(38.720703%, 76.99585%, 72.006226%)" offset="0.789062"/><stop stop-opacity="1" stop-color="rgb(38.66272%, 77.011108%, 72.251892%)" offset="0.792969"/><stop stop-opacity="1" stop-color="rgb(38.606262%, 77.027893%, 72.499084%)" offset="0.796875"/><stop stop-opacity="1" stop-color="rgb(38.548279%, 77.043152%, 72.744751%)" offset="0.800781"/><stop stop-opacity="1" stop-color="rgb(38.491821%, 77.058411%, 72.991943%)" offset="0.804687"/><stop stop-opacity="1" stop-color="rgb(38.435364%, 77.073669%, 73.239136%)" offset="0.808594"/><stop stop-opacity="1" stop-color="rgb(38.378906%, 77.088928%, 73.486328%)" offset="0.8125"/><stop stop-opacity="1" stop-color="rgb(38.320923%, 77.104187%, 73.731995%)" offset="0.816406"/><stop stop-opacity="1" stop-color="rgb(38.264465%, 77.120972%, 73.979187%)" offset="0.820312"/><stop stop-opacity="1" stop-color="rgb(38.206482%, 77.13623%, 74.224854%)" offset="0.824219"/><stop stop-opacity="1" stop-color="rgb(38.150024%, 77.151489%, 74.472046%)" offset="0.828125"/><stop stop-opacity="1" stop-color="rgb(38.092041%, 77.166748%, 74.719238%)" offset="0.832031"/><stop stop-opacity="1" stop-color="rgb(38.035583%, 77.182007%, 74.966431%)" offset="0.835937"/><stop stop-opacity="1" stop-color="rgb(37.9776%, 77.197266%, 75.212097%)" offset="0.839844"/><stop stop-opacity="1" stop-color="rgb(37.921143%, 77.21405%, 75.45929%)" offset="0.84375"/><stop stop-opacity="1" stop-color="rgb(37.863159%, 77.229309%, 75.704956%)" offset="0.847656"/><stop stop-opacity="1" stop-color="rgb(37.806702%, 77.244568%, 75.952148%)" offset="0.851562"/><stop stop-opacity="1" stop-color="rgb(37.748718%, 77.259827%, 76.199341%)" offset="0.855469"/><stop stop-opacity="1" stop-color="rgb(37.692261%, 77.275085%, 76.446533%)" offset="0.859375"/><stop stop-opacity="1" stop-color="rgb(37.634277%, 77.290344%, 76.6922%)" offset="0.863281"/><stop stop-opacity="1" stop-color="rgb(37.57782%, 77.307129%, 76.939392%)" offset="0.867187"/><stop stop-opacity="1" stop-color="rgb(37.521362%, 77.322388%, 77.185059%)" offset="0.871094"/><stop stop-opacity="1" stop-color="rgb(37.464905%, 77.337646%, 77.432251%)" offset="0.875"/><stop stop-opacity="1" stop-color="rgb(37.406921%, 77.352905%, 77.679443%)" offset="0.878906"/><stop stop-opacity="1" stop-color="rgb(37.350464%, 77.368164%, 77.926636%)" offset="0.882812"/><stop stop-opacity="1" stop-color="rgb(37.29248%, 77.383423%, 78.172302%)" offset="0.886719"/><stop stop-opacity="1" stop-color="rgb(37.236023%, 77.398682%, 78.419495%)" offset="0.890625"/><stop stop-opacity="1" stop-color="rgb(37.17804%, 77.41394%, 78.665161%)" offset="0.894531"/><stop stop-opacity="1" stop-color="rgb(37.121582%, 77.430725%, 78.912354%)" offset="0.898438"/><stop stop-opacity="1" stop-color="rgb(37.063599%, 77.445984%, 79.159546%)" offset="0.902344"/><stop stop-opacity="1" stop-color="rgb(37.007141%, 77.461243%, 79.406738%)" offset="0.90625"/><stop stop-opacity="1" stop-color="rgb(36.949158%, 77.476501%, 79.652405%)" offset="0.910156"/><stop stop-opacity="1" stop-color="rgb(36.8927%, 77.49176%, 79.899597%)" offset="0.914062"/><stop stop-opacity="1" stop-color="rgb(36.834717%, 77.507019%, 80.145264%)" offset="0.917969"/><stop stop-opacity="1" stop-color="rgb(36.778259%, 77.523804%, 80.392456%)" offset="0.921875"/><stop stop-opacity="1" stop-color="rgb(36.720276%, 77.539062%, 80.639648%)" offset="0.925781"/><stop stop-opacity="1" stop-color="rgb(36.663818%, 77.554321%, 80.886841%)" offset="0.929688"/><stop stop-opacity="1" stop-color="rgb(36.605835%, 77.56958%, 81.132507%)" offset="0.933594"/><stop stop-opacity="1" stop-color="rgb(36.549377%, 77.584839%, 81.3797%)" offset="0.9375"/><stop stop-opacity="1" stop-color="rgb(36.523438%, 77.590942%, 81.489563%)" offset="1"/></linearGradient></defs><g clip-path="url(#08651c463b)"><g clip-path="url(#304f54d93c)"><path fill="url(#00c2f121ac)" d="M 0.503906 20.832031 L 0.503906 0 L 21.335938 0 L 21.335938 20.832031 Z M 0.503906 20.832031 " fill-rule="nonzero"/></g></g><path fill="#ffffff" d="M 9.472656 11.433594 Z M 7.601562 13.453125 C 7.554688 13.453125 7.507812 13.453125 7.460938 13.449219 L 7.453125 13.449219 C 7.292969 13.4375 6.917969 13.402344 6.8125 13.378906 C 5.792969 13.140625 4.871094 12.554688 4.222656 11.734375 C 3.570312 10.914062 3.210938 9.882812 3.210938 8.835938 L 3.210938 7.859375 C 3.210938 6.8125 3.570312 5.78125 4.222656 4.960938 C 4.871094 4.140625 5.792969 3.554688 6.8125 3.316406 C 6.914062 3.289062 7.292969 3.261719 7.449219 3.246094 L 7.453125 3.246094 C 8.027344 3.207031 8.601562 3.40625 9.027344 3.789062 C 9.445312 4.171875 9.691406 4.691406 9.707031 5.25 C 9.707031 5.257812 9.707031 5.257812 9.707031 5.261719 L 9.707031 5.316406 C 9.707031 6.351562 8.972656 7.226562 7.960938 7.410156 C 7.9375 7.417969 7.910156 7.421875 7.882812 7.421875 C 7.753906 7.421875 7.648438 7.316406 7.648438 7.1875 L 7.648438 7.183594 C 7.648438 7.070312 7.734375 6.96875 7.84375 6.953125 C 8.652344 6.824219 9.238281 6.132812 9.238281 5.3125 L 9.238281 5.257812 C 9.226562 4.824219 9.039062 4.421875 8.710938 4.128906 C 8.382812 3.828125 7.9375 3.671875 7.488281 3.703125 C 7.253906 3.71875 6.972656 3.75 6.921875 3.761719 C 5.011719 4.214844 3.679688 5.894531 3.679688 7.855469 L 3.679688 8.832031 C 3.679688 10.789062 5.011719 12.472656 6.921875 12.925781 C 6.972656 12.9375 7.253906 12.964844 7.488281 12.984375 C 7.9375 13.015625 8.378906 12.859375 8.710938 12.558594 C 9.039062 12.265625 9.226562 11.867188 9.238281 11.429688 L 9.238281 11.375 C 9.238281 10.554688 8.652344 9.867188 7.84375 9.734375 C 7.71875 9.714844 7.632812 9.597656 7.652344 9.464844 C 7.675781 9.339844 7.796875 9.253906 7.921875 9.273438 C 8.957031 9.445312 9.710938 10.328125 9.710938 11.378906 L 9.710938 11.4375 C 9.710938 11.441406 9.710938 11.441406 9.710938 11.445312 C 9.695312 12.007812 9.449219 12.527344 9.03125 12.90625 C 8.640625 13.257812 8.121094 13.453125 7.601562 13.453125 Z M 7.601562 13.453125 " fill-opacity="1" fill-rule="evenodd"/><path fill="#ffffff" d="M 10.347656 17.644531 C 10.21875 17.644531 10.117188 17.542969 10.117188 17.410156 L 10.117188 12.214844 C 10.117188 9.976562 8.292969 8.148438 6.046875 8.148438 C 5.917969 8.148438 5.816406 8.046875 5.816406 7.914062 C 5.816406 7.785156 5.917969 7.679688 6.046875 7.679688 C 8.546875 7.679688 10.578125 9.710938 10.578125 12.210938 L 10.578125 17.40625 C 10.582031 17.542969 10.480469 17.644531 10.347656 17.644531 Z M 10.347656 17.644531 " fill-opacity="1" fill-rule="evenodd"/><path fill="#ffffff" d="M 6.761719 8.210938 C 6.679688 8.210938 6.601562 8.167969 6.554688 8.09375 C 6.363281 7.746094 6.148438 6.992188 6.757812 6.628906 C 6.867188 6.566406 7.011719 6.601562 7.078125 6.714844 C 7.144531 6.828125 7.109375 6.96875 6.996094 7.035156 C 6.625 7.257812 6.945312 7.84375 6.960938 7.867188 C 7.019531 7.980469 6.980469 8.125 6.867188 8.183594 C 6.839844 8.199219 6.800781 8.210938 6.761719 8.210938 Z M 6.761719 8.210938 " fill-opacity="1" fill-rule="evenodd"/><path fill="#ffffff" d="M 17.003906 12.304688 C 16.941406 12.304688 16.875 12.277344 16.832031 12.230469 C 16.746094 12.132812 16.75 11.984375 16.847656 11.898438 C 17.691406 11.113281 18.179688 9.996094 18.179688 8.835938 L 18.179688 7.859375 C 18.179688 5.902344 16.847656 4.21875 14.9375 3.765625 C 14.886719 3.753906 14.601562 3.726562 14.367188 3.707031 C 13.921875 3.675781 13.480469 3.832031 13.144531 4.132812 C 12.820312 4.425781 12.632812 4.824219 12.621094 5.257812 L 12.621094 5.316406 C 12.621094 6.136719 13.207031 6.824219 14.011719 6.957031 C 14.136719 6.976562 14.226562 7.09375 14.203125 7.226562 C 14.183594 7.351562 14.0625 7.4375 13.933594 7.417969 C 12.902344 7.246094 12.144531 6.363281 12.144531 5.3125 L 12.144531 5.253906 C 12.144531 5.25 12.144531 5.25 12.144531 5.246094 C 12.164062 4.683594 12.40625 4.164062 12.828125 3.785156 C 13.253906 3.398438 13.828125 3.203125 14.398438 3.242188 L 14.402344 3.242188 C 14.5625 3.253906 14.941406 3.289062 15.046875 3.3125 C 16.066406 3.550781 16.984375 4.136719 17.636719 4.957031 C 18.289062 5.777344 18.648438 6.808594 18.648438 7.855469 L 18.648438 8.832031 C 18.648438 10.121094 18.109375 11.359375 17.167969 12.238281 C 17.117188 12.28125 17.058594 12.304688 17.003906 12.304688 Z M 17.003906 12.304688 " fill-opacity="1" fill-rule="evenodd"/><path fill="#ffffff" d="M 13.316406 13.207031 C 13.277344 13.207031 13.238281 13.199219 13.203125 13.175781 C 12.578125 12.828125 12.175781 12.160156 12.148438 11.445312 C 12.148438 11.441406 12.148438 11.441406 12.148438 11.433594 L 12.148438 11.378906 C 12.148438 10.328125 12.902344 9.445312 13.9375 9.273438 C 14.0625 9.253906 14.1875 9.339844 14.207031 9.464844 C 14.230469 9.589844 14.140625 9.710938 14.015625 9.734375 C 13.210938 9.863281 12.625 10.554688 12.625 11.375 L 12.625 11.425781 C 12.644531 11.980469 12.957031 12.492188 13.4375 12.761719 C 13.550781 12.824219 13.589844 12.96875 13.53125 13.082031 C 13.476562 13.164062 13.402344 13.207031 13.316406 13.207031 Z M 13.316406 13.207031 " fill-opacity="1" fill-rule="evenodd"/><path fill="#ffffff" d="M 11.503906 17.644531 C 11.375 17.644531 11.269531 17.542969 11.269531 17.410156 L 11.269531 12.214844 C 11.269531 9.71875 13.300781 7.6875 15.800781 7.6875 C 15.929688 7.6875 16.035156 7.789062 16.035156 7.921875 C 16.035156 8.050781 15.929688 8.15625 15.800781 8.15625 C 13.5625 8.15625 11.734375 9.976562 11.734375 12.222656 L 11.734375 17.417969 C 11.738281 17.542969 11.628906 17.644531 11.503906 17.644531 Z M 11.503906 17.644531 " fill-opacity="1" fill-rule="evenodd"/><path fill="#ffffff" d="M 15.554688 10.613281 C 15.519531 10.613281 15.484375 10.605469 15.449219 10.589844 C 15.332031 10.53125 15.289062 10.390625 15.34375 10.277344 C 15.9375 9.085938 14.875 8.367188 14.660156 8.238281 C 14.550781 8.171875 14.511719 8.027344 14.582031 7.914062 C 14.644531 7.808594 14.789062 7.765625 14.902344 7.835938 C 15.074219 7.941406 16.554688 8.894531 15.765625 10.484375 C 15.722656 10.566406 15.640625 10.613281 15.554688 10.613281 Z M 15.554688 10.613281 " fill-opacity="1" fill-rule="evenodd"/><path fill="#ffffff" d="M 15.640625 11.941406 C 14.242188 11.941406 13.105469 13.078125 13.105469 14.476562 C 13.105469 15.875 14.242188 17.011719 15.640625 17.011719 C 17.039062 17.011719 18.175781 15.875 18.175781 14.476562 C 18.171875 13.078125 17.035156 11.941406 15.640625 11.941406 Z M 15.640625 17.480469 C 13.988281 17.480469 12.640625 16.136719 12.640625 14.480469 C 12.640625 12.828125 13.988281 11.484375 15.640625 11.484375 C 17.292969 11.484375 18.640625 12.828125 18.640625 14.480469 C 18.640625 16.132812 17.292969 17.480469 15.640625 17.480469 Z M 15.640625 17.480469 " fill-opacity="1" fill-rule="evenodd"/><path fill="#ffffff" d="M 14.90625 15.808594 C 14.84375 15.808594 14.785156 15.789062 14.742188 15.742188 L 14.007812 15.007812 C 13.917969 14.917969 13.917969 14.769531 14.007812 14.679688 C 14.097656 14.585938 14.246094 14.585938 14.335938 14.679688 L 14.902344 15.242188 L 16.933594 13.210938 C 17.023438 13.121094 17.171875 13.121094 17.261719 13.210938 C 17.355469 13.300781 17.355469 13.449219 17.261719 13.539062 L 15.066406 15.734375 C 15.027344 15.789062 14.96875 15.808594 14.90625 15.808594 Z M 14.90625 15.808594 " fill-opacity="1" fill-rule="evenodd"/><g fill="#000000" fill-opacity="1"><g transform="translate(23.463565, 14.337151)"><g><path d="M 4.359375 -7.890625 C 4.640625 -7.890625 4.953125 -7.859375 5.296875 -7.796875 C 5.640625 -7.734375 5.960938 -7.625 6.265625 -7.46875 C 6.566406 -7.320312 6.8125 -7.109375 7 -6.828125 C 7.195312 -6.546875 7.296875 -6.1875 7.296875 -5.75 C 7.296875 -5.425781 7.21875 -5.128906 7.0625 -4.859375 C 6.90625 -4.597656 6.664062 -4.398438 6.34375 -4.265625 C 6.789062 -4.128906 7.15625 -3.898438 7.4375 -3.578125 C 7.71875 -3.265625 7.859375 -2.851562 7.859375 -2.34375 C 7.859375 -1.882812 7.765625 -1.503906 7.578125 -1.203125 C 7.398438 -0.898438 7.15625 -0.660156 6.84375 -0.484375 C 6.53125 -0.304688 6.179688 -0.179688 5.796875 -0.109375 C 5.410156 -0.0351562 5.023438 0 4.640625 0 L 1.421875 0 C 1.296875 0 1.1875 -0.0390625 1.09375 -0.125 C 1 -0.21875 0.953125 -0.328125 0.953125 -0.453125 L 0.953125 -7.4375 C 0.953125 -7.5625 1 -7.664062 1.09375 -7.75 C 1.1875 -7.84375 1.296875 -7.890625 1.421875 -7.890625 Z M 4.359375 -7.078125 L 1.859375 -7.078125 L 1.859375 -4.546875 L 4.390625 -4.546875 C 4.742188 -4.546875 5.070312 -4.582031 5.375 -4.65625 C 5.675781 -4.738281 5.921875 -4.863281 6.109375 -5.03125 C 6.296875 -5.207031 6.390625 -5.445312 6.390625 -5.75 C 6.390625 -6.007812 6.320312 -6.222656 6.1875 -6.390625 C 6.050781 -6.566406 5.875 -6.703125 5.65625 -6.796875 C 5.445312 -6.898438 5.222656 -6.972656 4.984375 -7.015625 C 4.753906 -7.054688 4.546875 -7.078125 4.359375 -7.078125 Z M 5.015625 -3.75 L 1.859375 -3.75 L 1.859375 -0.8125 L 4.640625 -0.8125 C 5.003906 -0.8125 5.359375 -0.847656 5.703125 -0.921875 C 6.054688 -1.003906 6.347656 -1.15625 6.578125 -1.375 C 6.816406 -1.601562 6.9375 -1.925781 6.9375 -2.34375 C 6.9375 -2.832031 6.75 -3.1875 6.375 -3.40625 C 6 -3.632812 5.546875 -3.75 5.015625 -3.75 Z M 5.015625 -3.75 "/></g></g></g><g fill="#000000" fill-opacity="1"><g transform="translate(31.988419, 14.337151)"><g><path d="M 1.65625 -7.796875 C 1.65625 -7.648438 1.601562 -7.539062 1.5 -7.46875 C 1.40625 -7.40625 1.296875 -7.375 1.171875 -7.375 C 1.066406 -7.375 0.960938 -7.40625 0.859375 -7.46875 C 0.765625 -7.539062 0.71875 -7.648438 0.71875 -7.796875 L 0.71875 -7.859375 C 0.71875 -7.992188 0.765625 -8.097656 0.859375 -8.171875 C 0.960938 -8.242188 1.070312 -8.28125 1.1875 -8.28125 C 1.300781 -8.28125 1.40625 -8.242188 1.5 -8.171875 C 1.601562 -8.097656 1.65625 -7.992188 1.65625 -7.859375 Z M 0.734375 -5.875 C 0.734375 -6.007812 0.78125 -6.109375 0.875 -6.171875 C 0.976562 -6.242188 1.082031 -6.28125 1.1875 -6.28125 C 1.300781 -6.28125 1.40625 -6.242188 1.5 -6.171875 C 1.59375 -6.109375 1.640625 -6.007812 1.640625 -5.875 L 1.640625 -0.40625 C 1.640625 -0.269531 1.59375 -0.164062 1.5 -0.09375 C 1.40625 -0.03125 1.300781 0 1.1875 0 C 1.070312 0 0.96875 -0.03125 0.875 -0.09375 C 0.78125 -0.164062 0.734375 -0.269531 0.734375 -0.40625 Z M 0.734375 -5.875 "/></g></g></g><g fill="#000000" fill-opacity="1"><g transform="translate(34.494999, 14.337151)"><g><path d="M 3.6875 0.125 C 3.03125 0.125 2.457031 -0.0234375 1.96875 -0.328125 C 1.476562 -0.628906 1.101562 -1.035156 0.84375 -1.546875 C 0.582031 -2.054688 0.453125 -2.613281 0.453125 -3.21875 C 0.453125 -3.820312 0.59375 -4.363281 0.875 -4.84375 C 1.15625 -5.320312 1.535156 -5.703125 2.015625 -5.984375 C 2.503906 -6.265625 3.0625 -6.40625 3.6875 -6.40625 C 4.3125 -6.40625 4.867188 -6.253906 5.359375 -5.953125 C 5.847656 -5.660156 6.226562 -5.269531 6.5 -4.78125 C 6.78125 -4.300781 6.921875 -3.757812 6.921875 -3.15625 C 6.921875 -2.53125 6.78125 -1.96875 6.5 -1.46875 C 6.21875 -0.976562 5.832031 -0.585938 5.34375 -0.296875 C 4.863281 -0.015625 4.3125 0.125 3.6875 0.125 Z M 3.671875 -5.5625 C 3.273438 -5.5625 2.898438 -5.46875 2.546875 -5.28125 C 2.191406 -5.101562 1.90625 -4.832031 1.6875 -4.46875 C 1.46875 -4.113281 1.359375 -3.664062 1.359375 -3.125 C 1.359375 -2.6875 1.457031 -2.285156 1.65625 -1.921875 C 1.851562 -1.554688 2.125 -1.265625 2.46875 -1.046875 C 2.8125 -0.835938 3.21875 -0.734375 3.6875 -0.734375 C 4.144531 -0.734375 4.550781 -0.84375 4.90625 -1.0625 C 5.257812 -1.289062 5.53125 -1.582031 5.71875 -1.9375 C 5.914062 -2.300781 6.015625 -2.691406 6.015625 -3.109375 C 6.015625 -3.660156 5.898438 -4.117188 5.671875 -4.484375 C 5.441406 -4.847656 5.144531 -5.117188 4.78125 -5.296875 C 4.425781 -5.472656 4.054688 -5.5625 3.671875 -5.5625 Z M 3.671875 -5.5625 "/></g></g></g><g fill="#000000" fill-opacity="1"><g transform="translate(42.051966, 14.337151)"><g><path d="M 4.359375 -7.890625 C 4.640625 -7.890625 4.953125 -7.859375 5.296875 -7.796875 C 5.640625 -7.734375 5.960938 -7.625 6.265625 -7.46875 C 6.566406 -7.320312 6.8125 -7.109375 7 -6.828125 C 7.195312 -6.546875 7.296875 -6.1875 7.296875 -5.75 C 7.296875 -5.425781 7.21875 -5.128906 7.0625 -4.859375 C 6.90625 -4.597656 6.664062 -4.398438 6.34375 -4.265625 C 6.789062 -4.128906 7.15625 -3.898438 7.4375 -3.578125 C 7.71875 -3.265625 7.859375 -2.851562 7.859375 -2.34375 C 7.859375 -1.882812 7.765625 -1.503906 7.578125 -1.203125 C 7.398438 -0.898438 7.15625 -0.660156 6.84375 -0.484375 C 6.53125 -0.304688 6.179688 -0.179688 5.796875 -0.109375 C 5.410156 -0.0351562 5.023438 0 4.640625 0 L 1.421875 0 C 1.296875 0 1.1875 -0.0390625 1.09375 -0.125 C 1 -0.21875 0.953125 -0.328125 0.953125 -0.453125 L 0.953125 -7.4375 C 0.953125 -7.5625 1 -7.664062 1.09375 -7.75 C 1.1875 -7.84375 1.296875 -7.890625 1.421875 -7.890625 Z M 4.359375 -7.078125 L 1.859375 -7.078125 L 1.859375 -4.546875 L 4.390625 -4.546875 C 4.742188 -4.546875 5.070312 -4.582031 5.375 -4.65625 C 5.675781 -4.738281 5.921875 -4.863281 6.109375 -5.03125 C 6.296875 -5.207031 6.390625 -5.445312 6.390625 -5.75 C 6.390625 -6.007812 6.320312 -6.222656 6.1875 -6.390625 C 6.050781 -6.566406 5.875 -6.703125 5.65625 -6.796875 C 5.445312 -6.898438 5.222656 -6.972656 4.984375 -7.015625 C 4.753906 -7.054688 4.546875 -7.078125 4.359375 -7.078125 Z M 5.015625 -3.75 L 1.859375 -3.75 L 1.859375 -0.8125 L 4.640625 -0.8125 C 5.003906 -0.8125 5.359375 -0.847656 5.703125 -0.921875 C 6.054688 -1.003906 6.347656 -1.15625 6.578125 -1.375 C 6.816406 -1.601562 6.9375 -1.925781 6.9375 -2.34375 C 6.9375 -2.832031 6.75 -3.1875 6.375 -3.40625 C 6 -3.632812 5.546875 -3.75 5.015625 -3.75 Z M 5.015625 -3.75 "/></g></g></g><g fill="#000000" fill-opacity="1"><g transform="translate(50.576819, 14.337151)"><g><path d="M 3.671875 -6.40625 C 4.023438 -6.40625 4.382812 -6.332031 4.75 -6.1875 C 5.113281 -6.039062 5.40625 -5.785156 5.625 -5.421875 L 5.625 -5.828125 C 5.625 -5.960938 5.664062 -6.070312 5.75 -6.15625 C 5.832031 -6.238281 5.941406 -6.28125 6.078125 -6.28125 C 6.222656 -6.28125 6.332031 -6.238281 6.40625 -6.15625 C 6.488281 -6.070312 6.53125 -5.960938 6.53125 -5.828125 L 6.53125 -0.453125 C 6.53125 -0.316406 6.488281 -0.207031 6.40625 -0.125 C 6.332031 -0.0390625 6.222656 0 6.078125 0 C 5.773438 0 5.625 -0.148438 5.625 -0.453125 L 5.625 -0.984375 C 5.507812 -0.742188 5.335938 -0.539062 5.109375 -0.375 C 4.890625 -0.207031 4.648438 -0.0820312 4.390625 0 C 4.128906 0.0820312 3.875 0.125 3.625 0.125 C 3.03125 0.125 2.492188 -0.00390625 2.015625 -0.265625 C 1.535156 -0.535156 1.15625 -0.914062 0.875 -1.40625 C 0.59375 -1.894531 0.453125 -2.484375 0.453125 -3.171875 C 0.453125 -3.890625 0.597656 -4.484375 0.890625 -4.953125 C 1.179688 -5.429688 1.570312 -5.789062 2.0625 -6.03125 C 2.550781 -6.28125 3.085938 -6.40625 3.671875 -6.40625 Z M 3.640625 -0.734375 C 4.003906 -0.742188 4.335938 -0.820312 4.640625 -0.96875 C 4.941406 -1.125 5.179688 -1.34375 5.359375 -1.625 C 5.535156 -1.90625 5.625 -2.242188 5.625 -2.640625 L 5.625 -3.625 C 5.625 -4.238281 5.4375 -4.707031 5.0625 -5.03125 C 4.6875 -5.351562 4.21875 -5.523438 3.65625 -5.546875 C 3.164062 -5.554688 2.75 -5.453125 2.40625 -5.234375 C 2.0625 -5.015625 1.800781 -4.722656 1.625 -4.359375 C 1.445312 -3.992188 1.359375 -3.597656 1.359375 -3.171875 C 1.359375 -2.722656 1.4375 -2.34375 1.59375 -2.03125 C 1.75 -1.71875 1.945312 -1.46875 2.1875 -1.28125 C 2.4375 -1.09375 2.691406 -0.953125 2.953125 -0.859375 C 3.210938 -0.773438 3.441406 -0.734375 3.640625 -0.734375 Z M 3.640625 -0.734375 "/></g></g></g><g fill="#000000" fill-opacity="1"><g transform="translate(58.220648, 14.337151)"><g><path d="M 1.640625 -0.421875 C 1.640625 -0.304688 1.59375 -0.207031 1.5 -0.125 C 1.414062 -0.0390625 1.3125 0 1.1875 0 C 1.0625 0 0.953125 -0.0390625 0.859375 -0.125 C 0.773438 -0.207031 0.734375 -0.304688 0.734375 -0.421875 L 0.734375 -7.859375 C 0.734375 -7.984375 0.773438 -8.082031 0.859375 -8.15625 C 0.953125 -8.238281 1.0625 -8.28125 1.1875 -8.28125 C 1.3125 -8.28125 1.414062 -8.238281 1.5 -8.15625 C 1.59375 -8.082031 1.640625 -7.984375 1.640625 -7.859375 Z M 1.640625 -0.421875 "/></g></g></g><g fill="#000000" fill-opacity="1"><g transform="translate(60.727228, 14.337151)"><g><path d="M 3.671875 -6.40625 C 4.023438 -6.40625 4.382812 -6.332031 4.75 -6.1875 C 5.113281 -6.039062 5.40625 -5.785156 5.625 -5.421875 L 5.625 -5.828125 C 5.625 -5.960938 5.664062 -6.070312 5.75 -6.15625 C 5.832031 -6.238281 5.941406 -6.28125 6.078125 -6.28125 C 6.222656 -6.28125 6.332031 -6.238281 6.40625 -6.15625 C 6.488281 -6.070312 6.53125 -5.960938 6.53125 -5.828125 L 6.53125 -0.453125 C 6.53125 -0.316406 6.488281 -0.207031 6.40625 -0.125 C 6.332031 -0.0390625 6.222656 0 6.078125 0 C 5.773438 0 5.625 -0.148438 5.625 -0.453125 L 5.625 -0.984375 C 5.507812 -0.742188 5.335938 -0.539062 5.109375 -0.375 C 4.890625 -0.207031 4.648438 -0.0820312 4.390625 0 C 4.128906 0.0820312 3.875 0.125 3.625 0.125 C 3.03125 0.125 2.492188 -0.00390625 2.015625 -0.265625 C 1.535156 -0.535156 1.15625 -0.914062 0.875 -1.40625 C 0.59375 -1.894531 0.453125 -2.484375 0.453125 -3.171875 C 0.453125 -3.890625 0.597656 -4.484375 0.890625 -4.953125 C 1.179688 -5.429688 1.570312 -5.789062 2.0625 -6.03125 C 2.550781 -6.28125 3.085938 -6.40625 3.671875 -6.40625 Z M 3.640625 -0.734375 C 4.003906 -0.742188 4.335938 -0.820312 4.640625 -0.96875 C 4.941406 -1.125 5.179688 -1.34375 5.359375 -1.625 C 5.535156 -1.90625 5.625 -2.242188 5.625 -2.640625 L 5.625 -3.625 C 5.625 -4.238281 5.4375 -4.707031 5.0625 -5.03125 C 4.6875 -5.351562 4.21875 -5.523438 3.65625 -5.546875 C 3.164062 -5.554688 2.75 -5.453125 2.40625 -5.234375 C 2.0625 -5.015625 1.800781 -4.722656 1.625 -4.359375 C 1.445312 -3.992188 1.359375 -3.597656 1.359375 -3.171875 C 1.359375 -2.722656 1.4375 -2.34375 1.59375 -2.03125 C 1.75 -1.71875 1.945312 -1.46875 2.1875 -1.28125 C 2.4375 -1.09375 2.691406 -0.953125 2.953125 -0.859375 C 3.210938 -0.773438 3.441406 -0.734375 3.640625 -0.734375 Z M 3.640625 -0.734375 "/></g></g></g><g fill="#000000" fill-opacity="1"><g transform="translate(68.371056, 14.337151)"><g><path d="M 6 -3.625 C 6 -4 5.90625 -4.332031 5.71875 -4.625 C 5.539062 -4.914062 5.304688 -5.144531 5.015625 -5.3125 C 4.734375 -5.476562 4.421875 -5.5625 4.078125 -5.5625 C 3.679688 -5.5625 3.304688 -5.457031 2.953125 -5.25 C 2.597656 -5.050781 2.304688 -4.773438 2.078125 -4.421875 C 1.859375 -4.066406 1.75 -3.664062 1.75 -3.21875 L 1.75 -0.4375 C 1.75 -0.144531 1.597656 0 1.296875 0 C 1.160156 0 1.046875 -0.0351562 0.953125 -0.109375 C 0.867188 -0.191406 0.828125 -0.300781 0.828125 -0.4375 L 0.828125 -5.84375 C 0.828125 -5.976562 0.875 -6.082031 0.96875 -6.15625 C 1.0625 -6.238281 1.164062 -6.28125 1.28125 -6.28125 C 1.394531 -6.28125 1.492188 -6.238281 1.578125 -6.15625 C 1.671875 -6.082031 1.71875 -5.972656 1.71875 -5.828125 L 1.71875 -5.109375 C 1.945312 -5.566406 2.28125 -5.894531 2.71875 -6.09375 C 3.15625 -6.300781 3.613281 -6.40625 4.09375 -6.40625 C 4.570312 -6.40625 5.023438 -6.296875 5.453125 -6.078125 C 5.890625 -5.859375 6.238281 -5.539062 6.5 -5.125 C 6.769531 -4.71875 6.90625 -4.21875 6.90625 -3.625 L 6.90625 -0.4375 C 6.90625 -0.144531 6.757812 0 6.46875 0 C 6.332031 0 6.21875 -0.0351562 6.125 -0.109375 C 6.039062 -0.191406 6 -0.300781 6 -0.4375 Z M 6 -3.625 "/></g></g></g><g fill="#000000" fill-opacity="1"><g transform="translate(76.374737, 14.337151)"><g><path d="M 5.3125 -4.84375 C 5.082031 -5.113281 4.816406 -5.304688 4.515625 -5.421875 C 4.222656 -5.535156 3.925781 -5.59375 3.625 -5.59375 C 3.175781 -5.59375 2.785156 -5.484375 2.453125 -5.265625 C 2.117188 -5.046875 1.859375 -4.75 1.671875 -4.375 C 1.484375 -4.007812 1.390625 -3.59375 1.390625 -3.125 C 1.390625 -2.6875 1.484375 -2.28125 1.671875 -1.90625 C 1.859375 -1.539062 2.125 -1.242188 2.46875 -1.015625 C 2.8125 -0.796875 3.207031 -0.6875 3.65625 -0.6875 C 3.976562 -0.6875 4.300781 -0.753906 4.625 -0.890625 C 4.957031 -1.023438 5.234375 -1.238281 5.453125 -1.53125 C 5.523438 -1.625 5.613281 -1.671875 5.71875 -1.671875 C 5.820312 -1.679688 5.921875 -1.648438 6.015625 -1.578125 C 6.109375 -1.515625 6.164062 -1.429688 6.1875 -1.328125 C 6.207031 -1.222656 6.164062 -1.113281 6.0625 -1 C 5.769531 -0.632812 5.40625 -0.351562 4.96875 -0.15625 C 4.539062 0.03125 4.097656 0.125 3.640625 0.125 C 3.023438 0.125 2.476562 -0.0195312 2 -0.3125 C 1.53125 -0.601562 1.160156 -0.992188 0.890625 -1.484375 C 0.617188 -1.984375 0.484375 -2.539062 0.484375 -3.15625 C 0.484375 -3.46875 0.535156 -3.804688 0.640625 -4.171875 C 0.742188 -4.546875 0.914062 -4.898438 1.15625 -5.234375 C 1.40625 -5.578125 1.738281 -5.859375 2.15625 -6.078125 C 2.570312 -6.296875 3.085938 -6.40625 3.703125 -6.40625 C 4.140625 -6.40625 4.539062 -6.320312 4.90625 -6.15625 C 5.269531 -6 5.617188 -5.734375 5.953125 -5.359375 C 6.046875 -5.253906 6.078125 -5.148438 6.046875 -5.046875 C 6.023438 -4.953125 5.96875 -4.867188 5.875 -4.796875 C 5.789062 -4.734375 5.695312 -4.703125 5.59375 -4.703125 C 5.488281 -4.703125 5.394531 -4.75 5.3125 -4.84375 Z M 5.3125 -4.84375 "/></g></g></g><g fill="#000000" fill-opacity="1"><g transform="translate(83.050679, 14.337151)"><g><path d="M 6.921875 -3.171875 C 6.921875 -3.046875 6.882812 -2.921875 6.8125 -2.796875 C 6.738281 -2.671875 6.570312 -2.609375 6.3125 -2.609375 L 1.421875 -2.609375 C 1.472656 -2.265625 1.597656 -1.945312 1.796875 -1.65625 C 1.992188 -1.375 2.253906 -1.144531 2.578125 -0.96875 C 2.898438 -0.789062 3.269531 -0.703125 3.6875 -0.703125 C 3.976562 -0.703125 4.265625 -0.742188 4.546875 -0.828125 C 4.828125 -0.910156 5.085938 -1.046875 5.328125 -1.234375 C 5.441406 -1.328125 5.554688 -1.367188 5.671875 -1.359375 C 5.796875 -1.359375 5.898438 -1.320312 5.984375 -1.25 C 6.066406 -1.1875 6.109375 -1.097656 6.109375 -0.984375 C 6.109375 -0.867188 6.050781 -0.75 5.9375 -0.625 C 5.65625 -0.351562 5.316406 -0.15625 4.921875 -0.03125 C 4.523438 0.0820312 4.125 0.132812 3.71875 0.125 C 3.0625 0.125 2.492188 -0.0195312 2.015625 -0.3125 C 1.535156 -0.601562 1.160156 -0.992188 0.890625 -1.484375 C 0.628906 -1.984375 0.5 -2.539062 0.5 -3.15625 C 0.5 -3.863281 0.648438 -4.457031 0.953125 -4.9375 C 1.265625 -5.414062 1.660156 -5.78125 2.140625 -6.03125 C 2.617188 -6.28125 3.125 -6.40625 3.65625 -6.40625 C 4.21875 -6.40625 4.742188 -6.289062 5.234375 -6.0625 C 5.734375 -5.832031 6.132812 -5.484375 6.4375 -5.015625 C 6.75 -4.546875 6.910156 -3.929688 6.921875 -3.171875 Z M 1.375 -3.359375 L 6.046875 -3.359375 C 6.015625 -3.859375 5.875 -4.269531 5.625 -4.59375 C 5.382812 -4.925781 5.09375 -5.171875 4.75 -5.328125 C 4.414062 -5.484375 4.070312 -5.5625 3.71875 -5.5625 C 3.332031 -5.5625 2.96875 -5.484375 2.625 -5.328125 C 2.28125 -5.171875 1.992188 -4.925781 1.765625 -4.59375 C 1.546875 -4.269531 1.414062 -3.859375 1.375 -3.359375 Z M 1.375 -3.359375 "/></g></g></g></svg>